<?xml version="1.0" standalone="no"?>
<!DOCTYPE svg PUBLIC "-//W3C//DTD SVG 20010904//EN"
 "http://www.w3.org/TR/2001/REC-SVG-20010904/DTD/svg10.dtd">
<svg version="1.0" xmlns="http://www.w3.org/2000/svg"
 width="700.000000pt" height="700.000000pt" viewBox="0 0 700.000000 700.000000"
 preserveAspectRatio="xMidYMid meet">
<metadata>
Created by potrace 1.14, written by Peter Selinger 2001-2017
</metadata>
<g transform="translate(0.000000,700.000000) scale(0.100000,-0.100000)"
fill="#000000" stroke="none">
<path d="M1867 6974 c-1 -1 -60 -4 -132 -8 -71 -3 -141 -8 -155 -10 -14 -3
-38 -7 -55 -10 -63 -9 -173 -37 -265 -67 -459 -150 -849 -496 -1058 -938 -47
-100 -116 -299 -126 -365 -4 -21 -8 -41 -10 -45 -2 -3 -7 -28 -11 -56 -4 -27
-10 -66 -13 -85 -3 -19 -7 -858 -8 -1865 -2 -1441 1 -1847 11 -1910 22 -143
25 -159 41 -220 35 -135 94 -286 151 -388 18 -33 33 -62 33 -65 0 -3 28 -46
61 -96 257 -380 639 -648 1072 -751 56 -13 121 -27 144 -30 23 -3 57 -9 75
-12 49 -9 3610 -11 3698 -2 176 18 268 37 430 91 84 28 327 141 340 158 3 3
22 16 44 28 116 68 295 225 399 350 233 282 361 574 414 942 10 69 11 3695 1
3773 -81 634 -478 1165 -1070 1431 -43 19 -78 32 -78 29 0 -3 -6 -1 -12 4 -25
20 -232 78 -317 89 -25 3 -67 10 -94 14 -26 4 -82 8 -125 9 -78 3 -3382 7
-3385 5z"/>
</g>
</svg>
