<svg width="316" height="72" viewBox="0 0 316 72" fill="none" xmlns="http://www.w3.org/2000/svg">
<path d="M147.174 43.087C147.174 45.8964 144.896 48.1739 142.087 48.1739C139.278 48.1739 137 45.8964 137 43.087C137 40.2775 139.278 38 142.087 38C144.896 38 147.174 40.2775 147.174 43.087Z" fill="black"/>
<path d="M176 43.087C176 45.8964 173.723 48.1739 170.913 48.1739C168.104 48.1739 165.826 45.8964 165.826 43.087C165.826 40.2775 168.104 38 170.913 38C173.723 38 176 40.2775 176 43.087Z" fill="black"/>
<path d="M81.52 55.3C80.76 55.3 80.12 55.04 79.6 54.52C79.08 54 78.82 53.36 78.82 52.6V16.78C78.82 15.7 79.2 14.78 79.96 14.02C80.72 13.22 81.64 12.82 82.72 12.82H83.5C84.78 12.82 85.88 13.42 86.8 14.62L109.9 47.98V15.58C109.9 14.82 110.16 14.18 110.68 13.66C111.2 13.1 111.84 12.82 112.6 12.82C113.36 12.82 114 13.1 114.52 13.66C115.08 14.18 115.36 14.82 115.36 15.58V51.4C115.36 52.48 114.96 53.4 114.16 54.16C113.4 54.92 112.48 55.3 111.4 55.3H110.68C110.04 55.3 109.44 55.16 108.88 54.88C108.32 54.56 107.86 54.16 107.5 53.68L84.28 20.14V52.6C84.28 53.36 84 54 83.44 54.52C82.92 55.04 82.28 55.3 81.52 55.3ZM138.584 55.6C135.504 55.6 132.804 54.94 130.484 53.62C128.164 52.3 126.364 50.44 125.084 48.04C123.844 45.6 123.224 42.82 123.224 39.7C123.224 36.58 123.844 33.82 125.084 31.42C126.364 28.98 128.164 27.1 130.484 25.78C132.804 24.46 135.504 23.8 138.584 23.8C141.624 23.8 144.304 24.46 146.624 25.78C148.944 27.1 150.744 28.98 152.024 31.42C153.304 33.82 153.944 36.58 153.944 39.7C153.944 42.82 153.304 45.6 152.024 48.04C150.744 50.44 148.944 52.3 146.624 53.62C144.304 54.94 141.624 55.6 138.584 55.6ZM138.584 50.62C140.224 50.62 141.784 50.24 143.264 49.48C144.784 48.72 146.024 47.52 146.984 45.88C147.984 44.24 148.484 42.16 148.484 39.64C148.484 37.16 147.984 35.1 146.984 33.46C146.024 31.82 144.784 30.64 143.264 29.92C141.784 29.16 140.224 28.78 138.584 28.78C136.904 28.78 135.304 29.16 133.784 29.92C132.304 30.64 131.084 31.82 130.124 33.46C129.164 35.1 128.684 37.16 128.684 39.64C128.684 42.16 129.164 44.24 130.124 45.88C131.084 47.52 132.304 48.72 133.784 49.48C135.304 50.24 136.904 50.62 138.584 50.62ZM175.088 55.6C172.008 55.6 169.308 54.94 166.988 53.62C164.668 52.3 162.868 50.44 161.588 48.04C160.348 45.6 159.728 42.82 159.728 39.7C159.728 36.58 160.348 33.82 161.588 31.42C162.868 28.98 164.668 27.1 166.988 25.78C169.308 24.46 172.008 23.8 175.088 23.8C178.128 23.8 180.808 24.46 183.128 25.78C185.448 27.1 187.248 28.98 188.528 31.42C189.808 33.82 190.448 36.58 190.448 39.7C190.448 42.82 189.808 45.6 188.528 48.04C187.248 50.44 185.448 52.3 183.128 53.62C180.808 54.94 178.128 55.6 175.088 55.6ZM175.088 50.62C176.728 50.62 178.288 50.24 179.768 49.48C181.288 48.72 182.528 47.52 183.488 45.88C184.488 44.24 184.988 42.16 184.988 39.64C184.988 37.16 184.488 35.1 183.488 33.46C182.528 31.82 181.288 30.64 179.768 29.92C178.288 29.16 176.728 28.78 175.088 28.78C173.408 28.78 171.808 29.16 170.288 29.92C168.808 30.64 167.588 31.82 166.628 33.46C165.668 35.1 165.188 37.16 165.188 39.64C165.188 42.16 165.668 44.24 166.628 45.88C167.588 47.52 168.808 48.72 170.288 49.48C171.808 50.24 173.408 50.62 175.088 50.62ZM200.792 55.3C200.032 55.3 199.392 55.04 198.872 54.52C198.352 54 198.092 53.36 198.092 52.6V26.86C198.092 26.1 198.352 25.46 198.872 24.94C199.392 24.38 200.032 24.1 200.792 24.1C201.552 24.1 202.192 24.38 202.712 24.94C203.272 25.46 203.552 26.1 203.552 26.86V29.32C205.072 27.64 206.712 26.3 208.472 25.3C210.232 24.3 212.312 23.8 214.712 23.8C216.912 23.8 218.812 24.32 220.412 25.36C222.052 26.4 223.292 27.82 224.132 29.62C225.012 31.42 225.452 33.4 225.452 35.56V52.6C225.452 53.36 225.172 54 224.612 54.52C224.092 55.04 223.452 55.3 222.692 55.3C221.932 55.3 221.292 55.04 220.772 54.52C220.252 54 219.992 53.36 219.992 52.6V36.16C219.992 31.28 217.792 28.84 213.392 28.84C211.392 28.84 209.592 29.36 207.992 30.4C206.432 31.44 204.952 32.84 203.552 34.6V52.6C203.552 53.36 203.272 54 202.712 54.52C202.192 55.04 201.552 55.3 200.792 55.3ZM242.454 55.6C240.694 55.6 239.054 55.24 237.534 54.52C236.054 53.8 234.874 52.76 233.994 51.4C233.114 50 232.674 48.4 232.674 46.6C232.674 43.64 233.834 41.28 236.154 39.52C238.514 37.76 241.954 36.88 246.474 36.88H253.734V36.4C253.734 33.76 253.074 31.86 251.754 30.7C250.474 29.54 248.454 28.96 245.694 28.96C244.174 28.96 242.814 29.08 241.614 29.32C240.454 29.56 239.154 29.92 237.714 30.4C237.394 30.48 237.134 30.52 236.934 30.52C236.334 30.52 235.814 30.3 235.374 29.86C234.934 29.42 234.714 28.88 234.714 28.24C234.714 27.16 235.234 26.4 236.274 25.96C239.674 24.52 243.134 23.8 246.654 23.8C249.414 23.8 251.734 24.36 253.614 25.48C255.534 26.6 256.934 28.06 257.814 29.86C258.734 31.62 259.194 33.54 259.194 35.62V52.6C259.194 53.36 258.914 54 258.354 54.52C257.834 55.04 257.194 55.3 256.434 55.3C255.674 55.3 255.034 55.04 254.514 54.52C253.994 54 253.734 53.36 253.734 52.6V51.04C250.774 54.08 247.014 55.6 242.454 55.6ZM244.494 50.8C246.254 50.8 247.954 50.38 249.594 49.54C251.234 48.66 252.614 47.58 253.734 46.3V41.26H247.194C241.154 41.26 238.134 42.84 238.134 46C238.134 47.44 238.614 48.6 239.574 49.48C240.574 50.36 242.214 50.8 244.494 50.8ZM271.045 55.3C270.285 55.3 269.645 55.04 269.125 54.52C268.605 54 268.345 53.36 268.345 52.6V13.66C268.345 12.9 268.605 12.26 269.125 11.74C269.645 11.18 270.285 10.9 271.045 10.9C271.845 10.9 272.505 11.16 273.025 11.68C273.545 12.2 273.805 12.86 273.805 13.66V52.6C273.805 53.36 273.525 54 272.965 54.52C272.445 55.04 271.805 55.3 271.045 55.3ZM293.727 55.6C291.527 55.6 289.607 55.08 287.967 54.04C286.367 53 285.127 51.58 284.247 49.78C283.407 47.98 282.987 46 282.987 43.84V26.8C282.987 26.04 283.247 25.4 283.767 24.88C284.327 24.36 284.987 24.1 285.747 24.1C286.507 24.1 287.147 24.36 287.667 24.88C288.187 25.4 288.447 26.04 288.447 26.8V43.24C288.447 48.12 290.647 50.56 295.047 50.56C297.047 50.56 298.827 50.04 300.387 49C301.987 47.96 303.487 46.56 304.887 44.8V26.8C304.887 26.04 305.147 25.4 305.667 24.88C306.227 24.36 306.887 24.1 307.647 24.1C308.407 24.1 309.047 24.36 309.567 24.88C310.087 25.4 310.347 26.04 310.347 26.8V52.54C310.347 53.3 310.087 53.96 309.567 54.52C309.047 55.04 308.407 55.3 307.647 55.3C306.887 55.3 306.227 55.04 305.667 54.52C305.147 53.96 304.887 53.3 304.887 52.54V50.08C303.367 51.76 301.727 53.1 299.967 54.1C298.207 55.1 296.127 55.6 293.727 55.6Z" fill="black"/>
<rect y="4" width="64" height="64" rx="10" fill="#FC7753"/>
<rect x="9.94873" y="14" width="44.0945" height="44" rx="6.5" fill="#FC7753" stroke="white" stroke-width="7"/>
<rect x="24.3071" y="20.5" width="31.5" height="5.95276" rx="2.97638" transform="rotate(90 24.3071 20.5)" fill="white"/>
<rect opacity="0.5" x="35.2202" y="20.5" width="31.5" height="5.95276" rx="2.97638" transform="rotate(90 35.2202 20.5)" fill="white"/>
<rect opacity="0.3" x="46.1333" y="20.5" width="31.5" height="5.95276" rx="2.97638" transform="rotate(90 46.1333 20.5)" fill="white"/>
</svg>
