<svg width="606" height="303" viewBox="0 0 606 303" fill="none" xmlns="http://www.w3.org/2000/svg">
<rect x="244.048" width="116.921" height="116" rx="10" fill="#FC7753"/>
<rect x="258.829" y="14.7812" width="87.3438" height="86.4375" rx="7" fill="#FC7753" stroke="white" stroke-width="6"/>
<rect x="288.454" y="29.9062" width="57.0938" height="10.875" rx="5.4375" transform="rotate(90 288.454 29.9062)" fill="white"/>
<rect opacity="0.5" x="308.391" y="29.9062" width="57.0938" height="10.875" rx="5.4375" transform="rotate(90 308.391 29.9062)" fill="white"/>
<rect opacity="0.3" x="328.329" y="29.9062" width="57.0938" height="10.875" rx="5.4375" transform="rotate(90 328.329 29.9062)" fill="white"/>
<path d="M21.3 260.75C19.4 260.75 17.8 260.1 16.5 258.8C15.2 257.5 14.55 255.9 14.55 254V164.45C14.55 161.75 15.5 159.45 17.4 157.55C19.3 155.55 21.6 154.55 24.3 154.55H26.25C29.45 154.55 32.2 156.05 34.5 159.05L92.25 242.45V161.45C92.25 159.55 92.9 157.95 94.2 156.65C95.5 155.25 97.1 154.55 99 154.55C100.9 154.55 102.5 155.25 103.8 156.65C105.2 157.95 105.9 159.55 105.9 161.45V251C105.9 253.7 104.9 256 102.9 257.9C101 259.8 98.7 260.75 96 260.75H94.2C92.6 260.75 91.1 260.4 89.7 259.7C88.3 258.9 87.15 257.9 86.25 256.7L28.2 172.85V254C28.2 255.9 27.5 257.5 26.1 258.8C24.8 260.1 23.2 260.75 21.3 260.75ZM163.959 261.5C156.259 261.5 149.509 259.85 143.709 256.55C137.909 253.25 133.409 248.6 130.209 242.6C127.109 236.5 125.559 229.55 125.559 221.75C125.559 213.95 127.109 207.05 130.209 201.05C133.409 194.95 137.909 190.25 143.709 186.95C149.509 183.65 156.259 182 163.959 182C171.559 182 178.259 183.65 184.059 186.95C189.859 190.25 194.359 194.95 197.559 201.05C200.759 207.05 202.359 213.95 202.359 221.75C202.359 229.55 200.759 236.5 197.559 242.6C194.359 248.6 189.859 253.25 184.059 256.55C178.259 259.85 171.559 261.5 163.959 261.5ZM163.959 249.05C168.059 249.05 171.959 248.1 175.659 246.2C179.459 244.3 182.559 241.3 184.959 237.2C187.459 233.1 188.709 227.9 188.709 221.6C188.709 215.4 187.459 210.25 184.959 206.15C182.559 202.05 179.459 199.1 175.659 197.3C171.959 195.4 168.059 194.45 163.959 194.45C159.759 194.45 155.759 195.4 151.959 197.3C148.259 199.1 145.209 202.05 142.809 206.15C140.409 210.25 139.209 215.4 139.209 221.6C139.209 227.9 140.409 233.1 142.809 237.2C145.209 241.3 148.259 244.3 151.959 246.2C155.759 248.1 159.759 249.05 163.959 249.05ZM255.219 261.5C247.519 261.5 240.769 259.85 234.969 256.55C229.169 253.25 224.669 248.6 221.469 242.6C218.369 236.5 216.819 229.55 216.819 221.75C216.819 213.95 218.369 207.05 221.469 201.05C224.669 194.95 229.169 190.25 234.969 186.95C240.769 183.65 247.519 182 255.219 182C262.819 182 269.519 183.65 275.319 186.95C281.119 190.25 285.619 194.95 288.819 201.05C292.019 207.05 293.619 213.95 293.619 221.75C293.619 229.55 292.019 236.5 288.819 242.6C285.619 248.6 281.119 253.25 275.319 256.55C269.519 259.85 262.819 261.5 255.219 261.5ZM255.219 249.05C259.319 249.05 263.219 248.1 266.919 246.2C270.719 244.3 273.819 241.3 276.219 237.2C278.719 233.1 279.969 227.9 279.969 221.6C279.969 215.4 278.719 210.25 276.219 206.15C273.819 202.05 270.719 199.1 266.919 197.3C263.219 195.4 259.319 194.45 255.219 194.45C251.019 194.45 247.019 195.4 243.219 197.3C239.519 199.1 236.469 202.05 234.069 206.15C231.669 210.25 230.469 215.4 230.469 221.6C230.469 227.9 231.669 233.1 234.069 237.2C236.469 241.3 239.519 244.3 243.219 246.2C247.019 248.1 251.019 249.05 255.219 249.05ZM319.479 260.75C317.579 260.75 315.979 260.1 314.679 258.8C313.379 257.5 312.729 255.9 312.729 254V189.65C312.729 187.75 313.379 186.15 314.679 184.85C315.979 183.45 317.579 182.75 319.479 182.75C321.379 182.75 322.979 183.45 324.279 184.85C325.679 186.15 326.379 187.75 326.379 189.65V195.8C330.179 191.6 334.279 188.25 338.679 185.75C343.079 183.25 348.279 182 354.279 182C359.779 182 364.529 183.3 368.529 185.9C372.629 188.5 375.729 192.05 377.829 196.55C380.029 201.05 381.129 206 381.129 211.4V254C381.129 255.9 380.429 257.5 379.029 258.8C377.729 260.1 376.129 260.75 374.229 260.75C372.329 260.75 370.729 260.1 369.429 258.8C368.129 257.5 367.479 255.9 367.479 254V212.9C367.479 200.7 361.979 194.6 350.979 194.6C345.979 194.6 341.479 195.9 337.479 198.5C333.579 201.1 329.879 204.6 326.379 209V254C326.379 255.9 325.679 257.5 324.279 258.8C322.979 260.1 321.379 260.75 319.479 260.75ZM423.635 261.5C419.235 261.5 415.135 260.6 411.335 258.8C407.635 257 404.685 254.4 402.485 251C400.285 247.5 399.185 243.5 399.185 239C399.185 231.6 402.085 225.7 407.885 221.3C413.785 216.9 422.385 214.7 433.685 214.7H451.835V213.5C451.835 206.9 450.185 202.15 446.885 199.25C443.685 196.35 438.635 194.9 431.735 194.9C427.935 194.9 424.535 195.2 421.535 195.8C418.635 196.4 415.385 197.3 411.785 198.5C410.985 198.7 410.335 198.8 409.835 198.8C408.335 198.8 407.035 198.25 405.935 197.15C404.835 196.05 404.285 194.7 404.285 193.1C404.285 190.4 405.585 188.5 408.185 187.4C416.685 183.8 425.335 182 434.135 182C441.035 182 446.835 183.4 451.535 186.2C456.335 189 459.835 192.65 462.035 197.15C464.335 201.55 465.485 206.35 465.485 211.55V254C465.485 255.9 464.785 257.5 463.385 258.8C462.085 260.1 460.485 260.75 458.585 260.75C456.685 260.75 455.085 260.1 453.785 258.8C452.485 257.5 451.835 255.9 451.835 254V250.1C444.435 257.7 435.035 261.5 423.635 261.5ZM428.735 249.5C433.135 249.5 437.385 248.45 441.485 246.35C445.585 244.15 449.035 241.45 451.835 238.25V225.65H435.485C420.385 225.65 412.835 229.6 412.835 237.5C412.835 241.1 414.035 244 416.435 246.2C418.935 248.4 423.035 249.5 428.735 249.5ZM495.114 260.75C493.214 260.75 491.614 260.1 490.314 258.8C489.014 257.5 488.364 255.9 488.364 254V156.65C488.364 154.75 489.014 153.15 490.314 151.85C491.614 150.45 493.214 149.75 495.114 149.75C497.114 149.75 498.764 150.4 500.064 151.7C501.364 153 502.014 154.65 502.014 156.65V254C502.014 255.9 501.314 257.5 499.914 258.8C498.614 260.1 497.014 260.75 495.114 260.75ZM551.817 261.5C546.317 261.5 541.517 260.2 537.417 257.6C533.417 255 530.317 251.45 528.117 246.95C526.017 242.45 524.967 237.5 524.967 232.1V189.5C524.967 187.6 525.617 186 526.917 184.7C528.317 183.4 529.967 182.75 531.867 182.75C533.767 182.75 535.367 183.4 536.667 184.7C537.967 186 538.617 187.6 538.617 189.5V230.6C538.617 242.8 544.117 248.9 555.117 248.9C560.117 248.9 564.567 247.6 568.467 245C572.467 242.4 576.217 238.9 579.717 234.5V189.5C579.717 187.6 580.367 186 581.667 184.7C583.067 183.4 584.717 182.75 586.617 182.75C588.517 182.75 590.117 183.4 591.417 184.7C592.717 186 593.367 187.6 593.367 189.5V253.85C593.367 255.75 592.717 257.4 591.417 258.8C590.117 260.1 588.517 260.75 586.617 260.75C584.717 260.75 583.067 260.1 581.667 258.8C580.367 257.4 579.717 255.75 579.717 253.85V247.7C575.917 251.9 571.817 255.25 567.417 257.75C563.017 260.25 557.817 261.5 551.817 261.5Z" fill="black"/>
<path d="M182 234C182 241.732 175.732 248 168 248C160.268 248 154 241.732 154 234C154 226.268 160.268 220 168 220C175.732 220 182 226.268 182 234Z" fill="black"/>
<path d="M261.333 234C261.333 241.732 255.065 248 247.333 248C239.601 248 233.333 241.732 233.333 234C233.333 226.268 239.601 220 247.333 220C255.065 220 261.333 226.268 261.333 234Z" fill="black"/>
</svg>
