<svg width="298" height="57" viewBox="0 0 298 57" fill="none" xmlns="http://www.w3.org/2000/svg">
<rect x="0.189453" y="0.89209" width="56" height="56" rx="16" fill="#FC7753"/>
<rect x="7.83203" y="8.57959" width="40.7077" height="40.625" rx="8" fill="#FC7753" stroke="white" stroke-width="4"/>
<rect x="21.458" y="15.3296" width="27.5625" height="5.20866" rx="2.60433" transform="rotate(90 21.458 15.3296)" fill="white"/>
<rect opacity="0.5" x="31.0073" y="15.3296" width="27.5625" height="5.20866" rx="2.60433" transform="rotate(90 31.0073 15.3296)" fill="white"/>
<rect opacity="0.3" x="40.5562" y="15.3296" width="27.5625" height="5.20866" rx="2.60433" transform="rotate(90 40.5562 15.3296)" fill="white"/>
<path d="M132.992 38.5914C132.992 41.4008 130.714 43.6783 127.905 43.6783C125.095 43.6783 122.818 41.4008 122.818 38.5914C122.818 35.7819 125.095 33.5044 127.905 33.5044C130.714 33.5044 132.992 35.7819 132.992 38.5914Z" fill="black"/>
<path d="M165.497 38.5914C165.497 41.4008 163.22 43.6783 160.41 43.6783C157.601 43.6783 155.323 41.4008 155.323 38.5914C155.323 35.7819 157.601 33.5044 160.41 33.5044C163.22 33.5044 165.497 35.7819 165.497 38.5914Z" fill="black"/>
<path d="M68.8401 50.192C68.0801 50.192 67.4401 49.932 66.9201 49.412C66.4001 48.892 66.1401 48.252 66.1401 47.492V11.672C66.1401 10.592 66.5201 9.67199 67.2801 8.91199C68.0401 8.11199 68.9601 7.71199 70.0401 7.71199H70.8201C72.1001 7.71199 73.2001 8.31199 74.1201 9.51199L97.2201 42.872V10.472C97.2201 9.71199 97.4801 9.07199 98.0001 8.55199C98.5201 7.99199 99.1601 7.71199 99.9201 7.71199C100.68 7.71199 101.32 7.99199 101.84 8.55199C102.4 9.07199 102.68 9.71199 102.68 10.472V46.292C102.68 47.372 102.28 48.292 101.48 49.052C100.72 49.812 99.8001 50.192 98.7201 50.192H98.0001C97.3601 50.192 96.7601 50.052 96.2001 49.772C95.6401 49.452 95.1801 49.052 94.8201 48.572L71.6001 15.032V47.492C71.6001 48.252 71.3201 48.892 70.7601 49.412C70.2401 49.932 69.6001 50.192 68.8401 50.192Z" fill="black"/>
<path d="M125.904 50.492C122.824 50.492 120.124 49.832 117.804 48.512C115.484 47.192 113.684 45.332 112.404 42.932C111.164 40.492 110.544 37.712 110.544 34.592C110.544 31.472 111.164 28.712 112.404 26.312C113.684 23.872 115.484 21.992 117.804 20.672C120.124 19.352 122.824 18.692 125.904 18.692C128.944 18.692 131.624 19.352 133.944 20.672C136.264 21.992 138.064 23.872 139.344 26.312C140.624 28.712 141.264 31.472 141.264 34.592C141.264 37.712 140.624 40.492 139.344 42.932C138.064 45.332 136.264 47.192 133.944 48.512C131.624 49.832 128.944 50.492 125.904 50.492ZM125.904 45.512C127.544 45.512 129.104 45.132 130.584 44.372C132.104 43.612 133.344 42.412 134.304 40.772C135.304 39.132 135.804 37.052 135.804 34.532C135.804 32.052 135.304 29.992 134.304 28.352C133.344 26.712 132.104 25.532 130.584 24.812C129.104 24.052 127.544 23.672 125.904 23.672C124.224 23.672 122.624 24.052 121.104 24.812C119.624 25.532 118.404 26.712 117.444 28.352C116.484 29.992 116.004 32.052 116.004 34.532C116.004 37.052 116.484 39.132 117.444 40.772C118.404 42.412 119.624 43.612 121.104 44.372C122.624 45.132 124.224 45.512 125.904 45.512Z" fill="black"/>
<path d="M162.408 50.492C159.328 50.492 156.628 49.832 154.308 48.512C151.988 47.192 150.188 45.332 148.908 42.932C147.668 40.492 147.048 37.712 147.048 34.592C147.048 31.472 147.668 28.712 148.908 26.312C150.188 23.872 151.988 21.992 154.308 20.672C156.628 19.352 159.328 18.692 162.408 18.692C165.448 18.692 168.128 19.352 170.448 20.672C172.768 21.992 174.568 23.872 175.848 26.312C177.128 28.712 177.768 31.472 177.768 34.592C177.768 37.712 177.128 40.492 175.848 42.932C174.568 45.332 172.768 47.192 170.448 48.512C168.128 49.832 165.448 50.492 162.408 50.492ZM162.408 45.512C164.048 45.512 165.608 45.132 167.088 44.372C168.608 43.612 169.848 42.412 170.808 40.772C171.808 39.132 172.308 37.052 172.308 34.532C172.308 32.052 171.808 29.992 170.808 28.352C169.848 26.712 168.608 25.532 167.088 24.812C165.608 24.052 164.048 23.672 162.408 23.672C160.728 23.672 159.128 24.052 157.608 24.812C156.128 25.532 154.908 26.712 153.948 28.352C152.988 29.992 152.508 32.052 152.508 34.532C152.508 37.052 152.988 39.132 153.948 40.772C154.908 42.412 156.128 43.612 157.608 44.372C159.128 45.132 160.728 45.512 162.408 45.512Z" fill="black"/>
<path d="M188.112 50.192C187.352 50.192 186.712 49.932 186.192 49.412C185.672 48.892 185.412 48.252 185.412 47.492V21.752C185.412 20.992 185.672 20.352 186.192 19.832C186.712 19.272 187.352 18.992 188.112 18.992C188.872 18.992 189.512 19.272 190.032 19.832C190.592 20.352 190.872 20.992 190.872 21.752V24.212C192.392 22.532 194.032 21.192 195.792 20.192C197.552 19.192 199.632 18.692 202.032 18.692C204.232 18.692 206.132 19.212 207.732 20.252C209.372 21.292 210.612 22.712 211.452 24.512C212.332 26.312 212.772 28.292 212.772 30.452V47.492C212.772 48.252 212.492 48.892 211.932 49.412C211.412 49.932 210.772 50.192 210.012 50.192C209.252 50.192 208.612 49.932 208.092 49.412C207.572 48.892 207.312 48.252 207.312 47.492V31.052C207.312 26.172 205.112 23.732 200.712 23.732C198.712 23.732 196.912 24.252 195.312 25.292C193.752 26.332 192.272 27.732 190.872 29.492V47.492C190.872 48.252 190.592 48.892 190.032 49.412C189.512 49.932 188.872 50.192 188.112 50.192Z" fill="black"/>
<path d="M229.774 50.492C228.014 50.492 226.374 50.132 224.854 49.412C223.374 48.692 222.194 47.652 221.314 46.292C220.434 44.892 219.994 43.292 219.994 41.492C219.994 38.532 221.154 36.172 223.474 34.412C225.834 32.652 229.274 31.772 233.794 31.772H241.054V31.292C241.054 28.652 240.394 26.752 239.074 25.592C237.794 24.432 235.774 23.852 233.014 23.852C231.494 23.852 230.134 23.972 228.934 24.212C227.774 24.452 226.474 24.812 225.034 25.292C224.714 25.372 224.454 25.412 224.254 25.412C223.654 25.412 223.134 25.192 222.694 24.752C222.254 24.312 222.034 23.772 222.034 23.132C222.034 22.052 222.554 21.292 223.594 20.852C226.994 19.412 230.454 18.692 233.974 18.692C236.734 18.692 239.054 19.252 240.934 20.372C242.854 21.492 244.254 22.952 245.134 24.752C246.054 26.512 246.514 28.432 246.514 30.512V47.492C246.514 48.252 246.234 48.892 245.674 49.412C245.154 49.932 244.514 50.192 243.754 50.192C242.994 50.192 242.354 49.932 241.834 49.412C241.314 48.892 241.054 48.252 241.054 47.492V45.932C238.094 48.972 234.334 50.492 229.774 50.492ZM231.814 45.692C233.574 45.692 235.274 45.272 236.914 44.432C238.554 43.552 239.934 42.472 241.054 41.192V36.152H234.514C228.474 36.152 225.454 37.732 225.454 40.892C225.454 42.332 225.934 43.492 226.894 44.372C227.894 45.252 229.534 45.692 231.814 45.692Z" fill="black"/>
<path d="M258.366 50.192C257.606 50.192 256.966 49.932 256.446 49.412C255.926 48.892 255.666 48.252 255.666 47.492V8.55199C255.666 7.79199 255.926 7.15199 256.446 6.63199C256.966 6.07199 257.606 5.79199 258.366 5.79199C259.166 5.79199 259.826 6.05199 260.346 6.57199C260.866 7.09199 261.126 7.75199 261.126 8.55199V47.492C261.126 48.252 260.846 48.892 260.286 49.412C259.766 49.932 259.126 50.192 258.366 50.192Z" fill="black"/>
<path d="M281.047 50.492C278.847 50.492 276.927 49.972 275.287 48.932C273.687 47.892 272.447 46.472 271.567 44.672C270.727 42.872 270.307 40.892 270.307 38.732V21.692C270.307 20.932 270.567 20.292 271.087 19.772C271.647 19.252 272.307 18.992 273.067 18.992C273.827 18.992 274.467 19.252 274.987 19.772C275.507 20.292 275.767 20.932 275.767 21.692V38.132C275.767 43.012 277.967 45.452 282.367 45.452C284.367 45.452 286.147 44.932 287.707 43.892C289.307 42.852 290.807 41.452 292.207 39.692V21.692C292.207 20.932 292.467 20.292 292.987 19.772C293.547 19.252 294.207 18.992 294.967 18.992C295.727 18.992 296.367 19.252 296.887 19.772C297.407 20.292 297.667 20.932 297.667 21.692V47.432C297.667 48.192 297.407 48.852 296.887 49.412C296.367 49.932 295.727 50.192 294.967 50.192C294.207 50.192 293.547 49.932 292.987 49.412C292.467 48.852 292.207 48.192 292.207 47.432V44.972C290.687 46.652 289.047 47.992 287.287 48.992C285.527 49.992 283.447 50.492 281.047 50.492Z" fill="black"/>
</svg>
