<svg width="744" height="181" viewBox="0 0 744 181" fill="none" xmlns="http://www.w3.org/2000/svg">
<rect y="21" width="129.016" height="128" rx="10" fill="#FC7753"/>
<rect x="16" y="37" width="97" height="96" rx="7" fill="#FC7753" stroke="white" stroke-width="6"/>
<rect x="49" y="54" width="63" height="12" rx="6" transform="rotate(90 49 54)" fill="white"/>
<rect opacity="0.5" x="71" y="54" width="63" height="12" rx="6" transform="rotate(90 71 54)" fill="white"/>
<rect opacity="0.3" x="93" y="54" width="63" height="12" rx="6" transform="rotate(90 93 54)" fill="white"/>
<path d="M159.3 138.75C157.4 138.75 155.8 138.1 154.5 136.8C153.2 135.5 152.55 133.9 152.55 132V42.45C152.55 39.75 153.5 37.45 155.4 35.55C157.3 33.55 159.6 32.55 162.3 32.55H164.25C167.45 32.55 170.2 34.05 172.5 37.05L230.25 120.45V39.45C230.25 37.55 230.9 35.95 232.2 34.65C233.5 33.25 235.1 32.55 237 32.55C238.9 32.55 240.5 33.25 241.8 34.65C243.2 35.95 243.9 37.55 243.9 39.45V129C243.9 131.7 242.9 134 240.9 135.9C239 137.8 236.7 138.75 234 138.75H232.2C230.6 138.75 229.1 138.4 227.7 137.7C226.3 136.9 225.15 135.9 224.25 134.7L166.2 50.85V132C166.2 133.9 165.5 135.5 164.1 136.8C162.8 138.1 161.2 138.75 159.3 138.75ZM301.959 139.5C294.259 139.5 287.509 137.85 281.709 134.55C275.909 131.25 271.409 126.6 268.209 120.6C265.109 114.5 263.559 107.55 263.559 99.75C263.559 91.95 265.109 85.05 268.209 79.05C271.409 72.95 275.909 68.25 281.709 64.95C287.509 61.65 294.259 60 301.959 60C309.559 60 316.259 61.65 322.059 64.95C327.859 68.25 332.359 72.95 335.559 79.05C338.759 85.05 340.359 91.95 340.359 99.75C340.359 107.55 338.759 114.5 335.559 120.6C332.359 126.6 327.859 131.25 322.059 134.55C316.259 137.85 309.559 139.5 301.959 139.5ZM301.959 127.05C306.059 127.05 309.959 126.1 313.659 124.2C317.459 122.3 320.559 119.3 322.959 115.2C325.459 111.1 326.709 105.9 326.709 99.6C326.709 93.4 325.459 88.25 322.959 84.15C320.559 80.05 317.459 77.1 313.659 75.3C309.959 73.4 306.059 72.45 301.959 72.45C297.759 72.45 293.759 73.4 289.959 75.3C286.259 77.1 283.209 80.05 280.809 84.15C278.409 88.25 277.209 93.4 277.209 99.6C277.209 105.9 278.409 111.1 280.809 115.2C283.209 119.3 286.259 122.3 289.959 124.2C293.759 126.1 297.759 127.05 301.959 127.05ZM393.219 139.5C385.519 139.5 378.769 137.85 372.969 134.55C367.169 131.25 362.669 126.6 359.469 120.6C356.369 114.5 354.819 107.55 354.819 99.75C354.819 91.95 356.369 85.05 359.469 79.05C362.669 72.95 367.169 68.25 372.969 64.95C378.769 61.65 385.519 60 393.219 60C400.819 60 407.519 61.65 413.319 64.95C419.119 68.25 423.619 72.95 426.819 79.05C430.019 85.05 431.619 91.95 431.619 99.75C431.619 107.55 430.019 114.5 426.819 120.6C423.619 126.6 419.119 131.25 413.319 134.55C407.519 137.85 400.819 139.5 393.219 139.5ZM393.219 127.05C397.319 127.05 401.219 126.1 404.919 124.2C408.719 122.3 411.819 119.3 414.219 115.2C416.719 111.1 417.969 105.9 417.969 99.6C417.969 93.4 416.719 88.25 414.219 84.15C411.819 80.05 408.719 77.1 404.919 75.3C401.219 73.4 397.319 72.45 393.219 72.45C389.019 72.45 385.019 73.4 381.219 75.3C377.519 77.1 374.469 80.05 372.069 84.15C369.669 88.25 368.469 93.4 368.469 99.6C368.469 105.9 369.669 111.1 372.069 115.2C374.469 119.3 377.519 122.3 381.219 124.2C385.019 126.1 389.019 127.05 393.219 127.05ZM457.479 138.75C455.579 138.75 453.979 138.1 452.679 136.8C451.379 135.5 450.729 133.9 450.729 132V67.65C450.729 65.75 451.379 64.15 452.679 62.85C453.979 61.45 455.579 60.75 457.479 60.75C459.379 60.75 460.979 61.45 462.279 62.85C463.679 64.15 464.379 65.75 464.379 67.65V73.8C468.179 69.6 472.279 66.25 476.679 63.75C481.079 61.25 486.279 60 492.279 60C497.779 60 502.529 61.3 506.529 63.9C510.629 66.5 513.729 70.05 515.829 74.55C518.029 79.05 519.129 84 519.129 89.4V132C519.129 133.9 518.429 135.5 517.029 136.8C515.729 138.1 514.129 138.75 512.229 138.75C510.329 138.75 508.729 138.1 507.429 136.8C506.129 135.5 505.479 133.9 505.479 132V90.9C505.479 78.7 499.979 72.6 488.979 72.6C483.979 72.6 479.479 73.9 475.479 76.5C471.579 79.1 467.879 82.6 464.379 87V132C464.379 133.9 463.679 135.5 462.279 136.8C460.979 138.1 459.379 138.75 457.479 138.75ZM561.635 139.5C557.235 139.5 553.135 138.6 549.335 136.8C545.635 135 542.685 132.4 540.485 129C538.285 125.5 537.185 121.5 537.185 117C537.185 109.6 540.085 103.7 545.885 99.3C551.785 94.9 560.385 92.7 571.685 92.7H589.835V91.5C589.835 84.9 588.185 80.15 584.885 77.25C581.685 74.35 576.635 72.9 569.735 72.9C565.935 72.9 562.535 73.2 559.535 73.8C556.635 74.4 553.385 75.3 549.785 76.5C548.985 76.7 548.335 76.8 547.835 76.8C546.335 76.8 545.035 76.25 543.935 75.15C542.835 74.05 542.285 72.7 542.285 71.1C542.285 68.4 543.585 66.5 546.185 65.4C554.685 61.8 563.335 60 572.135 60C579.035 60 584.835 61.4 589.535 64.2C594.335 67 597.835 70.65 600.035 75.15C602.335 79.55 603.485 84.35 603.485 89.55V132C603.485 133.9 602.785 135.5 601.385 136.8C600.085 138.1 598.485 138.75 596.585 138.75C594.685 138.75 593.085 138.1 591.785 136.8C590.485 135.5 589.835 133.9 589.835 132V128.1C582.435 135.7 573.035 139.5 561.635 139.5ZM566.735 127.5C571.135 127.5 575.385 126.45 579.485 124.35C583.585 122.15 587.035 119.45 589.835 116.25V103.65H573.485C558.385 103.65 550.835 107.6 550.835 115.5C550.835 119.1 552.035 122 554.435 124.2C556.935 126.4 561.035 127.5 566.735 127.5ZM633.114 138.75C631.214 138.75 629.614 138.1 628.314 136.8C627.014 135.5 626.364 133.9 626.364 132V34.65C626.364 32.75 627.014 31.15 628.314 29.85C629.614 28.45 631.214 27.75 633.114 27.75C635.114 27.75 636.764 28.4 638.064 29.7C639.364 31 640.014 32.65 640.014 34.65V132C640.014 133.9 639.314 135.5 637.914 136.8C636.614 138.1 635.014 138.75 633.114 138.75ZM689.817 139.5C684.317 139.5 679.517 138.2 675.417 135.6C671.417 133 668.317 129.45 666.117 124.95C664.017 120.45 662.967 115.5 662.967 110.1V67.5C662.967 65.6 663.617 64 664.917 62.7C666.317 61.4 667.967 60.75 669.867 60.75C671.767 60.75 673.367 61.4 674.667 62.7C675.967 64 676.617 65.6 676.617 67.5V108.6C676.617 120.8 682.117 126.9 693.117 126.9C698.117 126.9 702.567 125.6 706.467 123C710.467 120.4 714.217 116.9 717.717 112.5V67.5C717.717 65.6 718.367 64 719.667 62.7C721.067 61.4 722.717 60.75 724.617 60.75C726.517 60.75 728.117 61.4 729.417 62.7C730.717 64 731.367 65.6 731.367 67.5V131.85C731.367 133.75 730.717 135.4 729.417 136.8C728.117 138.1 726.517 138.75 724.617 138.75C722.717 138.75 721.067 138.1 719.667 136.8C718.367 135.4 717.717 133.75 717.717 131.85V125.7C713.917 129.9 709.817 133.25 705.417 135.75C701.017 138.25 695.817 139.5 689.817 139.5Z" fill="black"/>
<path d="M320 112C320 119.732 313.732 126 306 126C298.268 126 292 119.732 292 112C292 104.268 298.268 98 306 98C313.732 98 320 104.268 320 112Z" fill="black"/>
<path d="M399.333 112C399.333 119.732 393.065 126 385.333 126C377.601 126 371.333 119.732 371.333 112C371.333 104.268 377.601 98 385.333 98C393.065 98 399.333 104.268 399.333 112Z" fill="black"/>
</svg>
