<svg width="32" height="33" viewBox="0 0 32 33" fill="none" xmlns="http://www.w3.org/2000/svg">
<path d="M16.24 32.6C13.16 32.6 10.46 31.94 8.14 30.62C5.82 29.3 4.02 27.44 2.74 25.04C1.5 22.6 0.88 19.82 0.88 16.7C0.88 13.58 1.5 10.82 2.74 8.42C4.02 5.98 5.82 4.1 8.14 2.78C10.46 1.46 13.16 0.799998 16.24 0.799998C19.28 0.799998 21.96 1.46 24.28 2.78C26.6 4.1 28.4 5.98 29.68 8.42C30.96 10.82 31.6 13.58 31.6 16.7C31.6 19.82 30.96 22.6 29.68 25.04C28.4 27.44 26.6 29.3 24.28 30.62C21.96 31.94 19.28 32.6 16.24 32.6ZM16.24 27.62C17.88 27.62 19.44 27.24 20.92 26.48C22.44 25.72 23.68 24.52 24.64 22.88C25.64 21.24 26.14 19.16 26.14 16.64C26.14 14.16 25.64 12.1 24.64 10.46C23.68 8.82 22.44 7.64 20.92 6.92C19.44 6.16 17.88 5.78 16.24 5.78C14.56 5.78 12.96 6.16 11.44 6.92C9.96 7.64 8.74 8.82 7.78 10.46C6.82 12.1 6.34 14.16 6.34 16.64C6.34 19.16 6.82 21.24 7.78 22.88C8.74 24.52 9.96 25.72 11.44 26.48C12.96 27.24 14.56 27.62 16.24 27.62Z" fill="black"/>
</svg>
