<?xml version="1.0" encoding="utf-8"?>
<svg width="30px" height="31px" viewBox="0 0 30 31" fill="none" xmlns="http://www.w3.org/2000/svg" xmlns:bx="https://boxy-svg.com">
  <path d="M 14.999 31 C 11.992 31 9.355 30.356 7.09 29.069 C 4.824 27.783 3.066 25.97 1.816 23.63 C 0.605 21.251 0 18.541 0 15.5 C 0 12.458 0.605 9.768 1.816 7.428 C 3.066 5.05 4.824 3.217 7.09 1.931 C 9.355 0.644 11.992 0 14.999 0 C 17.969 0 20.586 0.644 22.852 1.931 C 25.117 3.217 26.874 5.05 28.125 7.428 C 29.375 9.768 30 12.458 30 15.5 C 30 18.541 29.375 21.251 28.125 23.63 C 26.874 25.97 25.117 27.783 22.852 29.069 C 20.586 30.356 17.969 31 14.999 31 Z M 14.999 26.145 C 16.602 26.145 18.125 25.774 19.57 25.034 C 21.055 24.293 22.266 23.123 23.203 21.525 C 24.18 19.926 24.668 17.898 24.668 15.442 C 24.668 13.024 24.18 11.015 23.203 9.417 C 22.266 7.818 21.055 6.668 19.57 5.966 C 18.125 5.225 16.602 4.854 14.999 4.854 C 13.359 4.854 11.797 5.225 10.313 5.966 C 8.867 6.668 7.676 7.818 6.738 9.417 C 5.801 11.015 5.332 13.024 5.332 15.442 C 5.332 17.898 5.801 19.926 6.738 21.525 C 7.676 23.123 8.867 24.293 10.313 25.034 C 11.797 25.774 13.359 26.145 14.999 26.145 Z" fill="black" bx:origin="0.5 0.5"/>
</svg>